<svg width="28" height="28" viewBox="0 0 28 28" fill="none" xmlns="http://www.w3.org/2000/svg">
<path d="M25.6313 21.385C25.6313 21.805 25.538 22.2367 25.3397 22.6567C25.1413 23.0767 24.8847 23.4734 24.5463 23.8467C23.9747 24.4767 23.3447 24.9317 22.633 25.2234C21.933 25.515 21.1747 25.6667 20.358 25.6667C19.168 25.6667 17.8963 25.3867 16.5547 24.815C15.213 24.2434 13.8713 23.4734 12.5413 22.505C11.1997 21.525 9.92801 20.44 8.71467 19.2384C7.51301 18.025 6.42801 16.7534 5.45967 15.4234C4.50301 14.0934 3.73301 12.7634 3.17301 11.445C2.61301 10.115 2.33301 8.84337 2.33301 7.63004C2.33301 6.83671 2.47301 6.07837 2.75301 5.37837C3.03301 4.66671 3.47634 4.01337 4.09467 3.43004C4.84134 2.69504 5.65801 2.33337 6.52134 2.33337C6.84801 2.33337 7.17467 2.40337 7.46634 2.54337C7.76967 2.68337 8.03801 2.89337 8.24801 3.19671L10.9547 7.01171C11.1647 7.30337 11.3163 7.57171 11.4213 7.82837C11.5263 8.07337 11.5847 8.31837 11.5847 8.54004C11.5847 8.82004 11.503 9.10004 11.3397 9.36837C11.188 9.63671 10.9663 9.91671 10.6863 10.1967L9.79967 11.1184C9.67134 11.2467 9.61301 11.3984 9.61301 11.585C9.61301 11.6784 9.62467 11.76 9.64801 11.8534C9.68301 11.9467 9.71801 12.0167 9.74134 12.0867C9.95134 12.4717 10.313 12.9734 10.8263 13.58C11.3513 14.1867 11.9113 14.805 12.518 15.4234C13.148 16.0417 13.7547 16.6134 14.373 17.1384C14.9797 17.6517 15.4813 18.0017 15.878 18.2117C15.9363 18.235 16.0063 18.27 16.088 18.305C16.1813 18.34 16.2747 18.3517 16.3797 18.3517C16.578 18.3517 16.7297 18.2817 16.858 18.1534L17.7447 17.2784C18.0363 16.9867 18.3163 16.765 18.5847 16.625C18.853 16.4617 19.1213 16.38 19.413 16.38C19.6347 16.38 19.868 16.4267 20.1247 16.5317C20.3813 16.6367 20.6497 16.7884 20.9413 16.9867L24.803 19.7284C25.1063 19.9384 25.3163 20.1834 25.4447 20.475C25.5613 20.7667 25.6313 21.0584 25.6313 21.385Z" stroke="#18102C" stroke-width="2" stroke-miterlimit="10"/>
</svg>
