<svg width="28" height="28" viewBox="0 0 28 28" fill="none" xmlns="http://www.w3.org/2000/svg">
<path d="M13.9987 18.082C16.577 18.082 18.6654 15.9937 18.6654 13.4154V6.9987C18.6654 4.42036 16.577 2.33203 13.9987 2.33203C11.4204 2.33203 9.33203 4.42036 9.33203 6.9987V13.4154C9.33203 15.9937 11.4204 18.082 13.9987 18.082Z" stroke="black" stroke-width="2" stroke-linecap="round" stroke-linejoin="round"/>
<path d="M5.07422 11.2578V13.2411C5.07422 18.1645 9.07589 22.1661 13.9992 22.1661C18.9226 22.1661 22.9242 18.1645 22.9242 13.2411V11.2578" stroke="black" stroke-width="2" stroke-linecap="round" stroke-linejoin="round"/>
<path d="M12.3789 7.50359C13.4289 7.11859 14.5722 7.11859 15.6222 7.50359" stroke="black" stroke-width="2" stroke-linecap="round" stroke-linejoin="round"/>
<path d="M13.0664 9.97406C13.6847 9.81073 14.3264 9.81073 14.9447 9.97406" stroke="black" stroke-width="2" stroke-linecap="round" stroke-linejoin="round"/>
<path d="M14 22.168V25.668" stroke="black" stroke-width="2" stroke-linecap="round" stroke-linejoin="round"/>
</svg>
