<svg width="32" height="32" viewBox="0 0 32 32" fill="none" xmlns="http://www.w3.org/2000/svg">
<ellipse cx="16.5055" cy="9.70396" rx="6.37071" ry="6.37071" stroke="#18102C" stroke-width="2" stroke-linecap="round" stroke-linejoin="round"/>
<path fill-rule="evenodd" clip-rule="evenodd" d="M6.40041 24.9352C6.3987 24.4873 6.49886 24.0449 6.69332 23.6415C7.30354 22.4211 9.02436 21.7742 10.4523 21.4813C11.4821 21.2615 12.5261 21.1147 13.5766 21.042C15.5215 20.8711 17.4776 20.8711 19.4225 21.042C20.4729 21.1156 21.5169 21.2624 22.5469 21.4813C23.9748 21.7742 25.6956 22.36 26.3058 23.6415C26.6969 24.4639 26.6969 25.4186 26.3058 26.241C25.6956 27.5225 23.9748 28.1083 22.5469 28.389C21.5183 28.6179 20.4738 28.7688 19.4225 28.8406C17.8395 28.9748 16.2492 28.9992 14.6628 28.9138C14.2967 28.9138 13.9427 28.9138 13.5766 28.8406C12.5292 28.7697 11.4888 28.6187 10.4645 28.389C9.02436 28.1083 7.31574 27.5225 6.69332 26.241C6.49985 25.8329 6.39979 25.3868 6.40041 24.9352Z" stroke="#18102C" stroke-width="2" stroke-linecap="round" stroke-linejoin="round"/>
</svg>
