<svg width="34" height="28" viewBox="0 0 34 28" fill="none" xmlns="http://www.w3.org/2000/svg">
<path d="M20.002 24H10.998C6.49593 24 5 21.5059 5 19V9C5 5.24703 6.49593 4 10.998 4H20.002C24.5041 4 26 5.24703 26 9V19C26 22.753 24.4898 24 20.002 24Z" stroke="#18102C" stroke-width="2" stroke-linecap="round" stroke-linejoin="round"/>
<path d="M29.1711 19.5003L26 17.3979V10.5946L29.1711 8.49222C30.7224 7.46797 32 8.0933 32 9.89384V18.1095C32 19.91 30.7224 20.5353 29.1711 19.5003Z" stroke="#18102C" stroke-width="2" stroke-linecap="round" stroke-linejoin="round"/>
<path d="M19.418 12.832C20.3845 12.832 21.168 12.0485 21.168 11.082C21.168 10.1155 20.3845 9.33203 19.418 9.33203C18.4515 9.33203 17.668 10.1155 17.668 11.082C17.668 12.0485 18.4515 12.832 19.418 12.832Z" stroke="#18102C" stroke-width="2" stroke-linecap="round" stroke-linejoin="round"/>
</svg>
